<svg xmlns="http://www.w3.org/2000/svg" height="50" width="410">
    <g fill="#1f2566">
        <path d="M37.637 35.414c-.89 3.273-1.992 5.863-3.314 7.758-1.33 1.902-2.839 3.355-4.527 4.368-1.695 1.02-3.562 1.668-5.615 1.95-2.053.29-4.224.434-6.511.434H.12l2.177-8.268h7.255c.986 0 1.847-.082 2.577-.234a4.778 4.778 0 0 0 1.95-.903c.572-.44 1.061-1.06 1.481-1.867.414-.806.807-1.888 1.172-3.238L26.172 0h20.904zm0 0M53.78 49.924c-4.885 0-8.282-1.054-10.177-3.162-1.901-2.109-2.225-5.47-.978-10.1l6.242-23.399c1.247-4.63 3.376-8 6.394-10.1C58.279 1.053 62.227 0 67.119 0h26.905l-2.178 8.268H75.855c-1.509 0-2.639.393-3.397 1.171-.75.779-1.364 2.053-1.833 3.824L64.39 36.661c-.524 1.77-.613 3.046-.275 3.824.337.779 1.26 1.171 2.77 1.171h15.99l-2.183 8.268zm0 0M117.739 50l-.393-8.812H98.392L93.01 50h-9.515l29.33-50h24.57l1.867 50zm-.703-40.56l-13.18 22.777h13.338zm0 0M173.974 49.924l-3.9-16.301H166.1l-4.368 16.301h-19.892L155.18 0h40.092c1.192 0 2.494.186 3.9.551a9.117 9.117 0 0 1 3.74 1.95c1.09.937 1.875 2.184 2.343 3.741.469 1.564.386 3.535-.234 5.926L202.6 20.98c-.31 1.095-.757 2.225-1.33 3.396a15.657 15.657 0 0 1-2.183 3.315 16.307 16.307 0 0 1-3.115 2.81c-1.198.827-2.576 1.51-4.134 2.026l4.52 17.397zm11.155-37.364c.468-1.764.427-2.935-.117-3.507-.545-.572-1.495-.86-2.846-.86h-9.28l-4.527 17.08h9.363c2.7 0 4.444-1.482 5.223-4.445zm0 0M232.008 49.924l-3.9-16.301h-3.982l-4.369 16.301h-19.884L213.205 0h40.092c1.2 0 2.494.186 3.9.551a9.186 9.186 0 0 1 3.748 1.95c1.089.937 1.867 2.184 2.336 3.741.468 1.564.393 3.535-.234 5.926l-2.419 8.812a20.48 20.48 0 0 1-1.323 3.396 15.927 15.927 0 0 1-2.184 3.315 16.56 16.56 0 0 1-3.12 2.81c-1.2.827-2.578 1.51-4.135 2.026l4.527 17.397zm11.154-37.364c.462-1.764.427-2.935-.124-3.507-.544-.572-1.488-.86-2.845-.86h-9.28l-4.528 17.08h9.364c2.7 0 4.444-1.482 5.23-4.445zm0 0M258.293 50l13.331-50h20.594L278.88 50zm0 0M344.32 35.256c-1.35 5.201-3.404 8.95-6.16 11.23-2.708 2.294-6.16 3.438-10.376 3.438h-30.963c-4.313 0-7.18-1.123-8.578-3.355-1.509-2.288-1.564-6.056-.159-11.313l5.54-20.512c1.405-5.25 3.431-8.998 6.084-11.23C302.512 1.17 305.998 0 310.16 0h30.963c4.161 0 6.993 1.171 8.502 3.514.73 1.144 1.13 2.639 1.206 4.485.082 1.847-.242 4.093-.972 6.745zm-14.193-23.709c.571-2.129-.42-3.196-2.963-3.196h-7.49c-2.549 0-4.085 1.067-4.602 3.196l-7.255 26.906c-.572 2.135.393 3.203 2.887 3.203h7.49c2.597 0 4.16-1.068 4.678-3.203zm0 0M379.885 49.924l10.3-38.377c.31-1.143.297-1.936-.04-2.377-.338-.44-1.082-.668-2.219-.668H377.24l-11.08 41.422h-20.276L359.216 0h41.105c2.294 0 4.14.317 5.54.937 1.405.627 2.432 1.509 3.08 2.653.647 1.143.964 2.549.936 4.216-.027 1.66-.296 3.507-.82 5.533l-9.825 36.585zm0 0"/>
    </g>
</svg>
